<?xml version="1.0" encoding="UTF-8" ?>
<!DOCTYPE svg PUBLIC "-//W3C//DTD SVG 1.1//EN" "http://www.w3.org/Graphics/SVG/1.1/DTD/svg11.dtd">
<svg version="1.1" xmlns="http://www.w3.org/2000/svg">
<rect fill="#afcc12" width="100%" height="100%" />
<svg transform="translate(50, 50)" viewBox="0 0 160 160">
    <path fill="#ffffff" d=" M 67.94 57.87 C 76.84 53.54 85.54 48.78 94.58 44.77 C 94.63 71.26 94.62 97.76 94.59 124.25 C 85.57 120.18 76.87 115.42 67.94 111.15 C 67.94 93.39 67.95 75.63 67.94 57.87 Z" />
    <path fill="#ffffff" d=" M 31.08 72.04 C 35.54 63.39 44.96 57.78 54.70 57.88 C 54.63 75.67 54.67 93.45 54.67 111.24 C 47.19 110.99 39.79 107.93 34.82 102.25 C 27.42 94.26 25.97 81.61 31.08 72.04 Z" />
    <path fill="#ffffff" d=" M 107.92 57.93 C 116.48 57.91 124.91 62.11 129.75 69.22 C 133.30 74.72 135.80 81.37 134.65 87.99 C 133.11 95.63 128.82 102.96 122.04 107.06 C 117.87 109.84 112.85 110.85 107.93 111.22 C 107.91 106.80 107.90 102.37 107.93 97.95 C 115.98 97.88 122.84 89.87 120.94 81.89 C 119.89 75.71 114.04 71.32 107.93 71.04 C 107.90 66.67 107.91 62.30 107.92 57.93 Z" />
</svg>
</svg>
