<?xml version="1.0" encoding="UTF-8" ?>
<!DOCTYPE svg PUBLIC "-//W3C//DTD SVG 1.1//EN" "http://www.w3.org/Graphics/SVG/1.1/DTD/svg11.dtd">
<svg version="1.1" xmlns="http://www.w3.org/2000/svg">
<svg transform="translate(50, 50)" viewBox="0 0 165 165">
    <path fill="white" d="M19.888929965838727,19.472655577839134 C-4.058694355106013,43.48852614154231 -4.117356157715186,82.83065857192696 19.830275357533722,106.84708801851019 C40.11986829631245,127.19498970620913 71.40900440239835,130.29574906885392 95.05003791802531,116.15217772577915 L137.29941581467764,157.3524381125805 C143.1140677022508,163.01230553255874 152.2884668209222,162.8030974111644 157.84024658266478,156.88402321945574 C163.39260022851505,150.96498288261836 163.24705392153479,141.65155988196062 157.43184475209426,135.99169246198238 L115.82497964408608,95.55231809385214 C130.4133638035345,71.77233162535117 127.4509729325085,40.02756315528626 106.95494773734288,19.472655022841252 C83.00733393115033,-4.543773313746044 43.83600087877214,-4.543773313746044 19.888925538574625,19.472655022841252 L19.888925538574625,19.472655022841252 L19.888929965838727,19.472655022841252 Z M37.45353521592446,37.08774097214575 C51.89860219586237,22.60117260518865 74.94473261406009,22.60117260518865 89.38978243834964,37.08774097214575 C103.83483281604717,51.57429046917446 103.83483281604717,74.68661280537845 89.38978243834964,89.17316174740932 C74.94473206065209,103.65974509930953 51.89860219586235,103.65974509930953 37.45353521592445,89.17316174740932 C23.00848483822689,74.68661225038056 23.00848483822689,51.574289914176575 37.45353521592445,37.08774097214575 Z"/></svg>
</svg>
