<svg width="510" height="510" xmlns="http://www.w3.org/2000/svg">
 <metadata id="metadata8">image/svg+xml</metadata>
 <path fill="#fff" d=" M 0.00 0.00 L 510.00 0.00 L 510.00 510.00 L 0.00 510.00 L 0.00 0.00 Z" />
 <defs>
  <clipPath id="clipPath18" clipPathUnits="userSpaceOnUse">
   <path id="path20" d="m-1477,-1699.605103l0,2091l5010,0l0,-2091l-5010,0z"/>
  </clipPath>
  <clipPath id="clipPath24" clipPathUnits="userSpaceOnUse">
   <path id="path26" d="m3503.410156,-59.875061c0,0 -29.180176,204.849976 -118.709961,295.060059c-113.540039,118.389893 -240.839844,118.98999 -299.200195,125.909912c-417.850098,30.070068 -1044.649902,30.070068 -1044.649902,30.070068l-1.310059,0c0,0 -626.809814,0 -1044.659912,-30.070068c-58.380127,-6.919922 -185.630127,-7.52002 -299.199951,-125.909912c-89.540039,-90.210083 -118.680176,-295.060059 -118.680176,-295.060059c0,0 -29.859985,-240.550049 -29.859985,-481.119995l0,-225.528076c0,-240.542847 29.859985,-481.093933 29.859985,-481.093933c0,0 29.140137,-204.839966 118.680176,-295.058105c113.569824,-118.418091 262.809814,-114.64856 329.249756,-127.050903c238.890137,-22.828125 1015.26001,-29.879028 1015.26001,-29.879028c0,0 627.459961,0.941406 1045.310059,30.988281c58.359863,6.941528 185.660156,7.52356 299.200195,125.94165c89.529785,90.21814 118.709961,295.058105 118.709961,295.058105c0,0 29.819824,240.551086 29.819824,481.094055l0,225.527954c0,240.570068 -29.819824,481.119995 -29.819824,481.119995z"/>
  </clipPath>
  <linearGradient id="linearGradient28" spreadMethod="pad" y2="-0.000005" x2="0.500064" y1="0.99989" x1="0.500064">
   <stop id="stop30" offset="0" stop-color="#e42526"/>
   <stop id="stop32" offset="1" stop-color="#be1f26"/>
  </linearGradient>
  <clipPath id="clipPath40" clipPathUnits="userSpaceOnUse">
   <path id="path42" d="m0,0l5010,0l0,2090.77002l-5010,0l0,-2090.77002z"/>
  </clipPath>
 </defs>
 <g>
  <title>Layer 1</title>
  <g id="svg_3">
   <g id="svg_1">
    <g id="g14" transform="matrix(0.12500000186264515,0,0,-0.12500000186264515,0,261.35) ">
     <g clip-path="url(#clipPath18)" id="g16">
      <g clip-path="url(#clipPath24)" id="g22">
       <path id="path34" d="m1951,-1699.605103l0,1l-75,0l0,1l-67,0l0,1l-61,0l0,1l-56,0l0,1l-51,0l0,1l-48,0l0,1l-46,0l0,1l-42,0l0,1l-39,0l0,1l-37,0l0,1l-35,0l0,1l-33,0l0,1l-31,0l0,1l-29,0l0,1l-28,0l0,1l-26,0l0,1l-25,0l0,1l-23,0l0,1l-22,0l0,1l-20,0l0,1l-20,0l0,1l-17,0l0,1l-17,0l0,1l-16,0l0,1l-15,0l0,1l-13,0l0,1l-13,0l0,1l-11,0l0,1l-11,0l0,1l-6,0l0,1l-7,0l0,1l-7,0l0,1l-8,0l0,1l-8,0l0,1l-8,0l0,1l-8,0l0,1l-9,0l0,1l-7,0l0,1l-7,0l0,1l-8,0l0,1l-6,0l0,1l-6,0l0,1l-6,0l0,1l-6,0l0,1l-5,0l0,1l-5,0l0,1l-5,0l0,1l-5,0l0,1l-4,0l0,1l-4,0l0,1l-4,0l0,1l-5,0l0,1l-4,0l0,1l-3,0l0,1l-4,0l0,1l-3,0l0,1l-4,0l0,1l-3,0l0,1l-4,0l0,1l-3,0l0,1l-3,0l0,1l-3,0l0,1l-3,0l0,1l-3,0l0,1l-3,0l0,1l-2,0l0,1l-3,0l0,1l-3,0l0,1l-2,0l0,1l-3,0l0,1l-2,0l0,1l-3,0l0,1l-2,0l0,1l-2,0l0,1l-3,0l0,1l-2,0l0,1l-3,0l0,1l-2,0l0,1l-2,0l0,1l-2,0l0,1l-2,0l0,1l-2,0l0,1l-2,0l0,1l-2,0l0,1l-2,0l0,1l-2,0l0,1l-2,0l0,1l-2,0l0,1l-2,0l0,1l-1,0l0,1l-2,0l0,1l-2,0l0,1l-2,0l0,1l-1,0l0,1l-2,0l0,1l-2,0l0,1l-2,0l0,1l-1,0l0,1l-2,0l0,1l-2,0l0,1l-1,0l0,1l-2,0l0,1l-1,0l0,1l-2,0l0,1l-1,0l0,1l-2,0l0,1l-1,0l0,1l-2,0l0,1l-1,0l0,1l-2,0l0,1l-1,0l0,1l-2,0l0,1l-1,0l0,1l-1,0l0,1l-2,0l0,1l-1,0l0,1l-2,0l0,1l-1,0l0,1l-1,0l0,1l-2,0l0,1l-1,0l0,1l-1,0l0,1l-1,0l0,1l-1,0l0,1l-2,0l0,1l-1,0l0,1l-1,0l0,1l-1,0l0,1l-2,0l0,1l-1,0l0,1l-1,0l0,1l-1,0l0,1l-2,0l0,1l-1,0l0,1l-1,0l0,1l-1,0l0,1l-1,0l0,1l-1,0l0,1l-1,0l0,1l-1,0l0,1l-1,0l0,1l-1,0l0,1l-1,0l0,1l-1,0l0,1l-1,0l0,1l-1,0l0,1l-2,0l0,1l-1,0l0,1l-1,0l0,1l-1,0l0,1l-1,0l0,1l-1,0l0,1l-1,0l0,1l-1,0l0,1l-1,0l0,1l-1,0l0,1l-1,0l0,1l-1,0l0,1l-1,0l0,2l-1,0l0,1l-1,0l0,1l-1,0l0,1l-1,0l0,1l-1,0l0,1l-1,0l0,1l-1,0l0,2l-1,0l0,1l-1,0l0,1l-1,0l0,1l-1,0l0,1l-1,0l0,1l-1,0l0,1l-1,0l0,2l-1,0l0,1l-1,0l0,2l-1,0l0,1l-1,0l0,1l-1,0l0,2l-1,0l0,1l-1,0l0,2l-1,0l0,1l-1,0l0,1l-1,0l0,2l-1,0l0,1l-1,0l0,1l-1,0l0,2l-1,0l0,1l-1,0l0,2l-1,0l0,2l-1,0l0,1l-1,0l0,2l-1,0l0,2l-1,0l0,1l-1,0l0,2l-1,0l0,2l-1,0l0,1l-1,0l0,2l-1,0l0,2l-1,0l0,1l-1,0l0,2l-1,0l0,2l-1,0l0,2l-1,0l0,2l-1,0l0,2l-1,0l0,2l-1,0l0,2l-1,0l0,2l-1,0l0,2l-1,0l0,1l-1,0l0,2l-1,0l0,2l-1,0l0,2l-1,0l0,3l-1,0l0,2l-1,0l0,2l-1,0l0,2l-1,0l0,3l-1,0l0,2l-1,0l0,2l-1,0l0,2l-1,0l0,2l-1,0l0,3l-1,0l0,2l-1,0l0,3l-1,0l0,2l-1,0l0,3l-1,0l0,2l-1,0l0,3l-1,0l0,2l-1,0l0,3l-1,0l0,2l-1,0l0,3l-1,0l0,3l-1,0l0,3l-1,0l0,2l-1,0l0,3l-1,0l0,3l-1,0l0,3l-1,0l0,3l-1,0l0,3l-1,0l0,3l-1,0l0,3l-1,0l0,3l-1,0l0,3l-1,0l0,3l-1,0l0,4l-1,0l0,3l-1,0l0,3l-1,0l0,4l-1,0l0,3l-1,0l0,4l-1,0l0,3l-1,0l0,4l-1,0l0,3l-1,0l0,4l-1,0l0,4l-1,0l0,4l-1,0l0,4l-1,0l0,4l-1,0l0,4l-1,0l0,4l-1,0l0,4.000122l-1,0l0,5l-1,0l0,4l-1,0l0,5l-1,0l0,4l-1,0l0,5l-1,0l0,5l-1,0l0,5l-1,0l0,5l-1,0l0,6l-1,0l0,5l-1,0l0,6l-1,0l0,7l-1,0l0,8l-1,0l0,9l-1,0l0,9l-1,0l0,9l-1,0l0,9l-1,0l0,10l-1,0l0,9l-1,0l0,11l-1,0l0,10l-1,0l0,10l-1,0l0,11l-1,0l0,11l-1,0l0,11l-1,0l0,12l-1,0l0,12l-1,0l0,12l-1,0l0,13l-1,0l0,13l-1,0l0,14l-1,0l0,14l-1,0l0,14.999939l-1,0l0,16l-1,0l0,16l-1,0l0,18l-1,0l0,18l-1,0l0,22l-1,0l0,23l-1,0l0,29l-1,0l0,37l-1,0l0,366l1,0l0,37l1,0l0,29l1,0l0,23l1,0l0,21l1,0l0,19l1,0l0,18l1,0l0,16l1,0l0,16l1,0l0,15l1,0l0,14l1,0l0,14l1,0l0,13l1,0l0,12l1,0l0,13l1,0l0,12l1,0l0,11l1,0l0,12l1,0l0,11l1,0l0,10l1,0l0,11l1,0l0,10l1,0l0,10l1,0l0,10l1,0l0,10l1,0l0,9l1,0l0,9l1,0l0,9l1,0l0,9l1,0l0,8l1,0l0,7l1,0l0,5l1,0l0,6l1,0l0,5l1,0l0,6.000002l1,0l0,5l1,0l0,5l1,0l0,4l1,0l0,5l1,0l0,5l1,0l0,4l1,0l0,4l1,0l0,5l1,0l0,4l1,0l0,4l1,0l0,4l1,0l0,4l1,0l0,4l1,0l0,4l1,0l0,2.999998l1,0l0,4l1,0l0,4l1,0l0,3l1,0l0,4l1,0l0,3l1,0l0,4l1,0l0,3l1,0l0,3l1,0l0,3l1,0l0,3l1,0l0,4l1,0l0,3l1,0l0,3l1,0l0,3l1,0l0,3l1,0l0,3l1,0l0,3l1,0l0,2l1,0l0,3l1,0l0,3l1,0l0,3l1,0l0,3l1,0l0,2l1,0l0,3l1,0l0,2l1,0l0,3l1,0l0,3l1,0l0,2l1,0l0,3l1,0l0,2l1,0l0,3l1,0l0,2l1,0l0,2l1,0l0,2l1,0l0,3l1,0l0,2l1,0l0,2l1,0l0,2l1,0l0,3l1,0l0,2l1,0l0,2l1,0l0,2l1,0l0,2l1,0l0,2l1,0l0,2l1,0l0,2l1,0l0,2l1,0l0,2l1,0l0,2l1,0l0,2l1,0l0,2l1,0l0,2l1,0l0,2l1,0l0,2l1,0l0,1l1,0l0,2l1,0l0,2l1,0l0,1l1,0l0,2l1,0l0,2l1,0l0,1l1,0l0,2l1,0l0,2l1,0l0,1l1,0l0,2l1,0l0,2l1,0l0,1l1,0l0,2l1,0l0,1l1,0l0,2l1,0l0,1l1,0l0,1l1,0l0,2l1,0l0,1l1,0l0,2l1,0l0,1l1,0l0,1l1,0l0,2l1,0l0,1l1,0l0,2l1,0l0,1l1,0l0,1l1,0l0,2l1,0l0,1l1,0l0,1l1,0l0,1l1,0l0,1l1,0l0,1l1,0l0,1l1,0l0,1l1,0l0,2l1,0l0,1l1,0l0,1l1,0l0,1l1,0l0,1l1,0l0,1l1,0l0,1l1,0l0,2l1,0l0,1l1,0l0,1l1,0l0,1l1,0l0,1l2,0l0,1l1,0l0,1l1,0l0,1l1,0l0,1l1,0l0,1l1,0l0,1l1,0l0,1l1,0l0,1l1,0l0,1l1,0l0,1l1,0l0,1l1,0l0,1l1,0l0,1l1,0l0,1l1,0l0,1l1,0l0,1l1,0l0,1l1,0l0,1l1,0l0,1l1,0l0,1l2,0l0,1l1,0l0,1l1,0l0,1l1,0l0,1l1,0l0,1l2,0l0,1l1,0l0,1l1,0l0,1l1,0l0,1l1,0l0,1l1,0l0,1l2,0l0,1l1,0l0,1l1,0l0,1l1,0l0,1l1,0l0,1l2,0l0,1l1,0l0,1l1,0l0,1l2,0l0,1l1,0l0,1l2,0l0,1l1,0l0,1l1,0l0,1l2,0l0,1l1,0l0,1l1,0l0,1l2,0l0,1l1,0l0,1l2,0l0,1l1,0l0,1l1,0l0,1l2,0l0,1l1,0l0,1l2,0l0,1l2,0l0,1l1,0l0,1l2,0l0,1l1,0l0,1l2,0l0,1l2,0l0,1l1,0l0,1l2,0l0,1l1,0l0,1l2,0l0,1l2,0l0,1l2,0l0,1l1,0l0,1l2,0l0,1l2,0l0,1l2,0l0,1l2,0l0,1l2,0l0,1l1,0l0,1l2,0l0,1l2,0l0,1l2,0l0,1l2,0l0,1l2,0l0,1l3,0l0,1l2,0l0,1l2,0l0,1l2,0l0,1l2,0l0,1l2,0l0,1l3,0l0,1l2,0l0,1l2,0l0,1l3,0l0,1l3,0l0,1l2,0l0,1l3,0l0,1l2,0l0,1l3,0l0,1l2,0l0,1l3,0l0,1l4,0l0,1l3,0l0,1l3,0l0,1l3,0l0,1l3,0l0,1l3,0l0,1l4,0l0,1l4,0l0,1l3,0l0,1l4,0l0,1l4,0l0,1l4,0l0,1l5,0l0,1l4,0l0,1l5,0l0,1l5,0l0,1l6,0l0,1l5,0l0,1l7,0l0,1l7,0l0,1l7,0l0,1l8,0l0,1l9,0l0,1l10,0l0,1l10,0l0,1l10,0l0,1l11,0l0,1l14,0l0,1l15,0l0,1l15,0l0,1l16,0l0,1l16,0l0,1l18,0l0,1l17,0l0,1l18,0l0,1l19,0l0,1l20,0l0,1l21,0l0,1l21,0l0,1l23,0l0,1l23,0l0,1l24,0l0,1l26,0l0,1l27,0l0,1l28,0l0,1l30,0l0,1l32,0l0,1l34,0l0,1l37,0l0,1l39,0l0,1l42,0l0,1l47,0l0,1l52,0l0,1l60,0l0,1l71,0l0,1l94,0l0,1l285,0l0,-1l93,0l0,-1l71,0l0,-1l60,0l0,-1l52,0l0,-1l47,0l0,-1l43,0l0,-1l39,0l0,-1l36,0l0,-1l34,0l0,-1l32,0l0,-1l30,0l0,-1l29,0l0,-1l26,0l0,-1l26,0l0,-1l25,0l0,-1l23,0l0,-1l22,0l0,-1l22,0l0,-1l20,0l0,-1l20,0l0,-1l19,0l0,-1l18,0l0,-1l18,0l0,-1l17,0l0,-1l16,0l0,-1l16,0l0,-1l16,0l0,-1l14,0l0,-1l15,0l0,-1l11,0l0,-1l9,0l0,-1l11,0l0,-1l9,0l0,-1l9,0l0,-1l8,0l0,-1l8,0l0,-1l6,0l0,-1l7,0l0,-1l5,0l0,-1l6,0l0,-1l6,0l0,-1l4,0l0,-1l5,0l0,-1l4,0l0,-1l5,0l0,-1l3,0l0,-1l4,0l0,-1l4,0l0,-1l4,0l0,-1l3,0l0,-1l4,0l0,-1l3,0l0,-1l3,0l0,-1l3,0l0,-1l3,0l0,-1l3,0l0,-1l3,0l0,-1l3,0l0,-1l2,0l0,-1l3,0l0,-1l2,0l0,-1l3,0l0,-1l2,0l0,-1l3,0l0,-1l3,0l0,-1l2,0l0,-1l2,0l0,-1l2,0l0,-1l2,0l0,-1l3,0l0,-1l2,0l0,-1l2,0l0,-1l2,0l0,-1l2,0l0,-1l2,0l0,-1l2,0l0,-1l2,0l0,-1l2,0l0,-1l2,0l0,-1l2,0l0,-1l1,0l0,-1l2,0l0,-1l2,0l0,-1l2,0l0,-1l2,0l0,-1l2,0l0,-1l1,0l0,-1l2,0l0,-1l2,0l0,-1l1,0l0,-1l2,0l0,-1l1,0l0,-1l2,0l0,-1l2,0l0,-1l1,0l0,-1l2,0l0,-1l1,0l0,-1l2,0l0,-1l1,0l0,-1l2,0l0,-1l1,0l0,-1l2,0l0,-1l1,0l0,-1l2,0l0,-1l1,0l0,-1l1,0l0,-1l2,0l0,-1l1,0l0,-1l1,0l0,-1l2,0l0,-1l1,0l0,-1l2,0l0,-1l1,0l0,-1l1,0l0,-1l2,0l0,-1l1,0l0,-1l1,0l0,-1l1,0l0,-1l2,0l0,-1l1,0l0,-1l1,0l0,-1l1,0l0,-1l1,0l0,-1l2,0l0,-1l1,0l0,-1l1,0l0,-1l1,0l0,-1l1,0l0,-1l1,0l0,-1l2,0l0,-1l1,0l0,-1l1,0l0,-1l1,0l0,-1l1,0l0,-1l1,0l0,-1l1,0l0,-1l1,0l0,-1l2,0l0,-1l1,0l0,-1l1,0l0,-1l1,0l0,-1l1,0l0,-1l1,0l0,-1l1,0l0,-1l1,0l0,-1l1,0l0,-1l1,0l0,-1l1,0l0,-1l1,0l0,-1l1,0l0,-1l1,0l0,-1l1,0l0,-1l1,0l0,-1l1,0l0,-1l1,0l0,-1l1,0l0,-1l1,0l0,-1l1,0l0,-1l1,0l0,-2l1,0l0,-1l1,0l0,-1l1,0l0,-1l1,0l0,-1l1,0l0,-1l1,0l0,-1l1,0l0,-1l1,0l0,-2l1,0l0,-1l1,0l0,-1l1,0l0,-1l1,0l0,-1l1,0l0,-2l1,0l0,-1l1,0l0,-1l1,0l0,-2l1,0l0,-1l1,0l0,-2l1,0l0,-1l1,0l0,-1l1,0l0,-2l1,0l0,-1l1,0l0,-1l1,0l0,-2l1,0l0,-1l1,0l0,-2l1,0l0,-1l1,0l0,-2l1,0l0,-1l1,0l0,-2l1,0l0,-2l1,0l0,-1l1,0l0,-2l1,0l0,-2l1,0l0,-1l1,0l0,-2l1,0l0,-2l1,0l0,-1l1,0l0,-2l1,0l0,-2l1,0l0,-2l1,0l0,-2l1,0l0,-1l1,0l0,-2l1,0l0,-2l1,0l0,-2l1,0l0,-2l1,0l0,-2l1,0l0,-2l1,0l0,-2l1,0l0,-2l1,0l0,-2l1,0l0,-2l1,0l0,-2l1,0l0,-3l1,0l0,-2l1,0l0,-2l1,0l0,-2l1,0l0,-2l1,0l0,-3l1,0l0,-2l1,0l0,-2l1,0l0,-2l1,0l0,-3l1,0l0,-2l1,0l0,-3l1,0l0,-3l1,0l0,-2l1,0l0,-3l1,0l0,-2l1,0l0,-3l1,0l0,-2l1,0l0,-3l1,0l0,-3l1,0l0,-3l1,0l0,-2l1,0l0,-3l1,0l0,-3l1,0l0,-3l1,0l0,-3l1,0l0,-3l1,0l0,-3l1,0l0,-3l1,0l0,-3l1,0l0,-3l1,0l0,-4l1,0l0,-3l1,0l0,-3l1,0l0,-3l1,0l0,-4l1,0l0,-4l1,0l0,-3l1,0l0,-4l1,0l0,-3l1,0l0,-3.999998l1,0l0,-4l1,0l0,-4l1,0l0,-4l1,0l0,-3l1,0l0,-4l1,0l0,-5l1,0l0,-4l1,0l0,-4l1,0l0,-5l1,0l0,-4l1,0l0,-5l1,0l0,-4l1,0l0,-5l1,0l0,-5l1,0l0,-5.000002l1,0l0,-6l1,0l0,-5l1,0l0,-6l1,0l0,-6l1,0l0,-8l1,0l0,-8l1,0l0,-9l1,0l0,-9l1,0l0,-10l1,0l0,-9l1,0l0,-10l1,0l0,-10l1,0l0,-10l1,0l0,-10l1,0l0,-11l1,0l0,-11l1,0l0,-11l1,0l0,-12l1,0l0,-11l1,0l0,-13l1,0l0,-12l1,0l0,-13l1,0l0,-14l1,0l0,-14l1,0l0,-14l1,0l0,-16l1,0l0,-16l1,0l0,-17l1,0l0,-19l1,0l0,-20l1,0l0,-22l1,0l0,-27l1,0l0,-31l1,0l0,-401l-1,0l0,-30l-1,0l0,-27l-1,0l0,-22l-1,0l0,-21l-1,0l0,-18l-1,0l0,-18l-1,0l0,-15l-1,0l0,-16l-1,0l0,-13.999939l-1,0l0,-14l-1,0l0,-14l-1,0l0,-13l-1,0l0,-13l-1,0l0,-12l-1,0l0,-12l-1,0l0,-11l-1,0l0,-11l-1,0l0,-11l-1,0l0,-11l-1,0l0,-10l-1,0l0,-10l-1,0l0,-11l-1,0l0,-9l-1,0l0,-10l-1,0l0,-9l-1,0l0,-9l-1,0l0,-9l-1,0l0,-9l-1,0l0,-7l-1,0l0,-6l-1,0l0,-6l-1,0l0,-6l-1,0l0,-5l-1,0l0,-5l-1,0l0,-5l-1,0l0,-5l-1,0l0,-5l-1,0l0,-4l-1,0l0,-5l-1,0l0,-4l-1,0l0,-4l-1,0l0,-5.000122l-1,0l0,-4l-1,0l0,-4l-1,0l0,-4l-1,0l0,-4l-1,0l0,-4l-1,0l0,-4l-1,0l0,-3l-1,0l0,-4l-1,0l0,-3l-1,0l0,-4l-1,0l0,-3l-1,0l0,-4l-1,0l0,-3l-1,0l0,-3l-1,0l0,-4l-1,0l0,-3l-1,0l0,-3l-1,0l0,-3l-1,0l0,-3l-1,0l0,-4l-1,0l0,-2l-1,0l0,-3l-1,0l0,-3l-1,0l0,-3l-1,0l0,-3l-1,0l0,-3l-1,0l0,-3l-1,0l0,-2l-1,0l0,-3l-1,0l0,-3l-1,0l0,-2l-1,0l0,-3l-1,0l0,-2l-1,0l0,-3l-1,0l0,-2l-1,0l0,-3l-1,0l0,-2l-1,0l0,-3l-1,0l0,-2l-1,0l0,-2l-1,0l0,-3l-1,0l0,-2l-1,0l0,-2l-1,0l0,-2l-1,0l0,-3l-1,0l0,-2l-1,0l0,-2l-1,0l0,-2l-1,0l0,-2l-1,0l0,-2l-1,0l0,-2l-1,0l0,-2l-1,0l0,-2l-1,0l0,-2l-1,0l0,-2l-1,0l0,-2l-1,0l0,-2l-1,0l0,-2l-1,0l0,-2l-1,0l0,-2l-1,0l0,-2l-1,0l0,-1l-1,0l0,-2l-1,0l0,-2l-1,0l0,-1l-1,0l0,-2l-1,0l0,-2l-1,0l0,-1l-1,0l0,-2l-1,0l0,-2l-1,0l0,-1l-1,0l0,-2l-1,0l0,-2l-1,0l0,-1l-1,0l0,-2l-1,0l0,-1l-1,0l0,-1l-1,0l0,-2l-1,0l0,-1l-1,0l0,-2l-1,0l0,-1l-1,0l0,-1l-1,0l0,-2l-1,0l0,-1l-1,0l0,-2l-1,0l0,-1l-1,0l0,-1l-1,0l0,-2l-1,0l0,-1l-1,0l0,-1l-1,0l0,-1l-1,0l0,-2l-1,0l0,-1l-1,0l0,-1l-1,0l0,-1l-1,0l0,-1l-1,0l0,-1l-1,0l0,-1l-1,0l0,-1l-1,0l0,-2l-1,0l0,-1l-1,0l0,-1l-1,0l0,-1l-1,0l0,-1l-1,0l0,-1l-1,0l0,-1l-1,0l0,-1l-1,0l0,-1l-1,0l0,-1l-1,0l0,-1l-1,0l0,-1l-1,0l0,-1l-1,0l0,-1l-1,0l0,-1l-1,0l0,-1l-1,0l0,-1l-1,0l0,-1l-1,0l0,-1l-1,0l0,-1l-1,0l0,-1l-1,0l0,-1l-1,0l0,-1l-1,0l0,-1l-1,0l0,-1l-1,0l0,-1l-1,0l0,-1l-1,0l0,-1l-2,0l0,-1l-1,0l0,-1l-1,0l0,-1l-1,0l0,-1l-1,0l0,-1l-1,0l0,-1l-2,0l0,-1l-1,0l0,-1l-1,0l0,-1l-1,0l0,-1l-1,0l0,-1l-2,0l0,-1l-1,0l0,-1l-1,0l0,-1l-1,0l0,-1l-1,0l0,-1l-1,0l0,-1l-2,0l0,-1l-1,0l0,-1l-1,0l0,-1l-2,0l0,-1l-1,0l0,-1l-1,0l0,-1l-2,0l0,-1l-1,0l0,-1l-2,0l0,-1l-1,0l0,-1l-1,0l0,-1l-2,0l0,-1l-1,0l0,-1l-1,0l0,-1l-2,0l0,-1l-1,0l0,-1l-1,0l0,-1l-2,0l0,-1l-2,0l0,-1l-1,0l0,-1l-2,0l0,-1l-1,0l0,-1l-2,0l0,-1l-2,0l0,-1l-1,0l0,-1l-2,0l0,-1l-1,0l0,-1l-2,0l0,-1l-2,0l0,-1l-1,0l0,-1l-2,0l0,-1l-2,0l0,-1l-1,0l0,-1l-2,0l0,-1l-2,0l0,-1l-2,0l0,-1l-2,0l0,-1l-2,0l0,-1l-2,0l0,-1l-1,0l0,-1l-2,0l0,-1l-2,0l0,-1l-2,0l0,-1l-2,0l0,-1l-3,0l0,-1l-2,0l0,-1l-2,0l0,-1l-2,0l0,-1l-2,0l0,-1l-2,0l0,-1l-3,0l0,-1l-2,0l0,-1l-2,0l0,-1l-3,0l0,-1l-2,0l0,-1l-3,0l0,-1l-3,0l0,-1l-2,0l0,-1l-3,0l0,-1l-2,0l0,-1l-3,0l0,-1l-3,0l0,-1l-3,0l0,-1l-3,0l0,-1l-3,0l0,-1l-4,0l0,-1l-3,0l0,-1l-3,0l0,-1l-4,0l0,-1l-4,0l0,-1l-3,0l0,-1l-4,0l0,-1l-5,0l0,-1l-4,0l0,-1l-5,0l0,-1l-4,0l0,-1l-5,0l0,-1l-6,0l0,-1l-5,0l0,-1l-7,0l0,-1l-6,0l0,-1l-7,0l0,-1l-8,0l0,-1l-9,0l0,-1l-10,0l0,-1l-10,0l0,-1l-10,0l0,-1l-9,0l0,-1l-14,0l0,-1l-15,0l0,-1l-15,0l0,-1l-16,0l0,-1l-16,0l0,-1l-17,0l0,-1l-17,0l0,-1l-18,0l0,-1l-19,0l0,-1l-19,0l0,-1l-20,0l0,-1l-21,0l0,-1l-22,0l0,-1l-22,0l0,-1l-24,0l0,-1l-25,0l0,-1l-26,0l0,-1l-27,0l0,-1l-28,0l0,-1l-31,0l0,-1l-32,0l0,-1l-34,0l0,-1l-36,0l0,-1l-39,0l0,-1l-42,0l0,-1l-46,0l0,-1l-51,0l0,-1l-57,0l0,-1l-67,0l0,-1l-84,0l0,-1" fill-rule="nonzero" fill="url(#linearGradient28)"/>
      </g>
     </g>
    </g>
    <path id="path50" d="m365.375,332.648132c0,-11.682495 3.203735,-14.868744 10.76123,-14.868744c7.502502,0 10.48877,3.471222 10.48877,15.024994l0,13.644989l-21.25,0.023743l0,-13.824982zm45.043762,32.551361l-0.005005,-25.553864c0,-13.350006 -2.628784,-23.116241 -7.359985,-29.433746c-6.34375,-8.547516 -15.355042,-13.07251 -26.70752,-13.07251c-11.55249,0 -20.563721,4.524994 -27.108765,13.07251c-4.807495,6.317505 -7.612488,16.637482 -7.612488,29.987488l0,43.750122c0,13.273499 3.08374,22.56601 7.891235,28.81601c6.542542,8.535126 15.553772,12.794861 27.392517,12.794861c11.82373,0 21.109985,-4.469757 27.369995,-13.53949c2.751282,-4.003998 4.528748,-8.542999 5.29248,-13.559113c0.203796,-2.266144 0.803772,-7.427277 0.803772,-14.719757l0,-3.54248l-23.748718,0c0,9.07962 0.039978,14.4776 -0.170044,15.710999c-1.29126,6.048859 -4.538757,9.079102 -10.109985,9.079102c-7.767517,0 -11.048767,-5.807617 -10.971252,-17.342743l0,-22.447388l45.043762,0" fill-rule="nonzero" fill="#ffffff"/>
    <path id="path52" d="m302.875,387.699493c0,12.5 -2.946259,17.290131 -9.472504,17.290131c-3.726257,0 -8.018738,-1.91748 -11.803741,-5.701752l0.026245,-75.807251c3.783752,-3.735016 8.051239,-5.701263 11.777496,-5.701263c6.526245,0 9.472504,3.670013 9.472504,16.170013l0,53.750122zm2.633759,-90.755127c-8.325012,0 -16.600006,5.119995 -23.910004,14.11499l0.026245,-54.609985l-22.5,0l0,167.500122l22.5,0l0.03125,-12.584869c7.561249,9.35498 15.806244,14.19574 23.852509,14.19574c9.01123,0 15.596252,-4.82373 18.616241,-14.11087c1.511261,-5.29538 2.5,-13.447754 2.5,-25l0,-50.000122c0,-11.831268 -1.516235,-19.920013 -3.027496,-24.943756c-3.019989,-9.356262 -9.077515,-14.561249 -18.088745,-14.561249" fill-rule="nonzero" fill="#ffffff"/>
    <path id="path54" d="m240.375,423.949493l-23.75,0l0,-13.75c-9.003754,10.319885 -16.636261,15.532257 -24.956238,15.532257c-7.300018,0 -12.368774,-3.443878 -14.907501,-9.665009c-1.542511,-3.783722 -2.636261,-9.689972 -2.636261,-18.367218l0,-98.750153l23.75,0l0,92.500153c0,5.302246 0,7.499969 0,8.75c0.553741,3.50885 2.043762,4.7901 5.063751,4.7901c4.546234,0 8.660004,-3.950256 13.686249,-11.040131l0,-95.000122l23.75,0l0,125.000122" fill-rule="nonzero" fill="#ffffff"/>
    <path id="path56" d="m150.375,423.949493l-25,0l0,-143.750092l-26.25,0l0,-23.723785l78.75,-0.026245l0,23.750031l-27.5,0l0,143.750092" fill-rule="nonzero" fill="#ffffff"/>
   </g>
   <g id="svg_2">
    <path id="path44" d="m371.875,204.949509l-23.75,0l0,-13.750015c-9.003754,10.319901 -16.63623,15.532257 -24.956238,15.532257c-7.300018,0 -12.368774,-3.443863 -14.907532,-9.665009c-1.54248,-3.783722 -2.63623,-9.689957 -2.63623,-18.367218l0,-100.000137l23.75,0l0,93.750122c0,5.302261 0,7.5 0,8.750015c0.553772,3.50885 2.043732,4.7901 5.063751,4.7901c4.546234,0 8.660004,-3.950256 13.686249,-11.0401l0,-96.250137l23.75,0l0,126.250122" fill-rule="nonzero" fill="#100f0d"/>
    <path id="path46" d="m264.375,167.449493c1.25,12.500015 -2.626984,18.702271 -10.001984,18.702271c-7.375,0 -11.248016,-6.202255 -9.998016,-18.702271l0,-50.000114c-1.25,-12.500015 2.625,-18.358772 10,-18.358772c7.375,0 11.262512,5.858757 10.012482,18.358772l-0.012482,50.000114zm23.75,-47.50013c0,-13.491226 -2.709991,-23.62249 -7.5,-30c-6.327484,-8.634987 -16.25,-12.169991 -26.25,-12.169991c-11.318878,0 -19.932129,3.535004 -26.25,12.169991c-4.866241,6.37751 -7.476501,16.618759 -7.476501,30.110016l-0.023499,44.890129c0,13.416122 2.321747,22.686111 7.187988,29.000992c6.317871,8.608887 16.562012,13.170013 26.562012,13.170013c10,0 20.423767,-4.561127 26.75,-13.170013c4.789978,-6.31488 7,-15.584869 7,-29.000992l0,-45.000145" fill-rule="nonzero" fill="#100f0d"/>
    <path id="path48" d="m194.375,136.199493l0,68.750015l-25,0l0,-68.750015c0,0 -25.905762,-84.288853 -31.25,-100.000122l26.25,0l17.543503,65.845009l17.456497,-65.845009l26.25,0l-31.25,100.000122" fill-rule="nonzero" fill="#100f0d"/>
   </g>
  </g>
 </g>
</svg>