<?xml version="1.0" encoding="UTF-8" ?>
<!DOCTYPE svg PUBLIC "-//W3C//DTD SVG 1.1//EN" "http://www.w3.org/Graphics/SVG/1.1/DTD/svg11.dtd">
<svg width="160pt" height="165pt" viewBox="0 0 160 165" version="1.1" xmlns="http://www.w3.org/2000/svg">
<path fill="#32afc5" d=" M 0.00 0.00 L 160.00 0.00 L 160.00 165.00 L 0.00 165.00 L 0.00 0.00 Z" />
<path fill="#ffffff" d=" M 30.00 34.00 C 34.30 34.01 38.60 33.94 42.90 34.07 C 46.93 38.08 50.93 42.12 54.97 46.11 C 50.73 50.38 46.41 54.58 42.12 58.80 C 46.33 58.66 50.54 58.93 54.74 58.66 C 59.38 54.83 63.42 50.23 67.82 46.09 C 63.64 42.10 59.78 37.77 55.39 34.00 C 61.50 34.18 67.66 33.66 73.75 34.23 C 77.89 38.07 81.73 42.23 85.81 46.13 C 81.57 50.37 77.32 54.59 72.97 58.72 C 78.00 58.81 83.02 58.74 88.04 58.75 C 92.32 54.53 96.62 50.32 100.88 46.08 C 96.72 42.06 92.83 37.76 88.47 33.97 C 94.36 34.12 100.26 33.84 106.15 34.09 C 110.48 37.79 114.16 42.24 118.31 46.17 C 114.09 50.32 110.15 54.74 105.66 58.60 C 109.87 58.88 114.09 58.73 118.31 58.75 C 122.50 54.55 126.76 50.42 130.90 46.16 C 131.03 75.75 130.92 105.35 130.96 134.95 C 97.30 134.97 63.65 134.94 30.00 134.97 C 30.00 101.31 30.00 67.66 30.00 34.00 Z" />
<path fill="#ffffff" d=" M 118.95 33.99 C 122.96 34.01 126.97 34.00 130.98 34.00 C 130.94 38.02 130.96 42.04 130.95 46.06 C 126.93 42.06 123.04 37.93 118.95 33.99 Z" />
<path fill="#32afc5" d=" M 42.18 84.25 C 67.59 84.24 93.00 84.22 118.41 84.26 C 118.38 88.44 118.38 92.63 118.42 96.81 C 93.00 96.82 67.57 96.81 42.15 96.81 C 42.22 92.62 42.20 88.44 42.18 84.25 Z" />
<path fill="#32afc5" d=" M 42.18 109.49 C 67.59 109.49 93.00 109.47 118.41 109.50 C 118.38 113.77 118.41 118.03 118.37 122.29 C 93.00 122.30 67.62 122.27 42.25 122.31 C 42.16 118.04 42.21 113.76 42.18 109.49 Z" />
</svg>
