<?xml version="1.0" encoding="UTF-8" ?>
<!DOCTYPE svg PUBLIC "-//W3C//DTD SVG 1.1//EN" "http://www.w3.org/Graphics/SVG/1.1/DTD/svg11.dtd">
<svg width="160pt" height="169pt" viewBox="0 0 160 169" version="1.1" xmlns="http://www.w3.org/2000/svg">
<path fill="#e9b11c" d=" M 0.00 0.00 L 160.00 0.00 L 160.00 169.00 L 0.00 169.00 L 0.00 0.00 Z" />
<path fill="#ffffff" d=" M 35.41 39.98 C 35.18 36.73 37.83 33.68 40.98 33.17 C 44.73 32.55 48.32 36.05 48.18 39.77 C 48.24 50.41 48.20 61.05 48.17 71.68 C 50.34 71.69 52.51 71.71 54.67 71.72 C 54.62 75.97 54.63 80.22 54.68 84.48 C 52.50 84.49 50.33 84.52 48.15 84.53 C 48.24 99.45 48.23 114.38 48.17 129.30 C 48.28 133.00 44.69 136.45 40.96 135.85 C 37.82 135.28 35.18 132.27 35.41 129.01 C 35.38 114.18 35.39 99.35 35.42 84.52 C 33.28 84.51 31.15 84.49 29.01 84.48 C 29.04 80.23 29.04 75.97 29.01 71.72 C 31.14 71.71 33.28 71.70 35.41 71.69 C 35.41 61.12 35.37 50.55 35.41 39.98 Z" />
<path fill="#ffffff" d=" M 73.88 39.80 C 73.76 36.43 76.66 33.14 80.08 33.13 C 83.64 32.97 86.85 36.37 86.65 39.91 C 86.70 59.03 86.67 78.16 86.66 97.28 C 88.80 97.29 90.93 97.30 93.07 97.30 C 93.08 101.57 93.08 105.84 93.07 110.11 C 90.94 110.12 88.80 110.13 86.67 110.13 C 86.63 116.45 86.74 122.77 86.66 129.08 C 86.88 132.93 83.06 136.56 79.20 135.82 C 76.17 135.24 73.77 132.29 73.88 129.18 C 73.77 122.83 73.90 116.48 73.87 110.14 C 71.72 110.13 69.57 110.12 67.42 110.11 C 67.43 105.85 67.43 101.58 67.41 97.31 C 69.57 97.30 71.73 97.28 73.90 97.27 C 73.82 78.12 73.84 58.95 73.88 39.80 Z" />
<path fill="#ffffff" d=" M 112.28 39.90 C 112.10 36.35 115.31 32.93 118.90 33.13 C 122.36 33.16 125.21 36.50 125.06 39.90 C 125.20 46.22 125.05 52.54 125.09 58.87 C 127.36 58.87 129.64 58.88 131.91 58.89 C 131.89 63.15 131.89 67.42 131.93 71.68 C 129.64 71.70 127.34 71.71 125.05 71.73 C 125.13 90.85 125.13 109.97 125.06 129.09 C 125.20 132.50 122.37 135.80 118.92 135.90 C 115.30 136.06 112.10 132.64 112.28 129.06 C 112.24 109.95 112.27 90.83 112.27 71.71 C 110.14 71.71 108.01 71.70 105.88 71.70 C 105.87 67.43 105.87 63.16 105.88 58.89 C 108.01 58.88 110.14 58.87 112.26 58.87 C 112.31 52.55 112.19 46.22 112.28 39.90 Z" />
</svg>
