<?xml version="1.0" encoding="UTF-8" ?>
<!DOCTYPE svg PUBLIC "-//W3C//DTD SVG 1.1//EN" "http://www.w3.org/Graphics/SVG/1.1/DTD/svg11.dtd">
<svg version="1.1" xmlns="http://www.w3.org/2000/svg">
<rect fill="#951ce9" width="100%" height="100%" />
<svg transform="translate(50, 50)" viewBox="0 0 160 160">
    <path fill="#ffffff" d=" M 87.37 24.39 C 97.62 18.45 111.14 18.55 121.23 24.79 C 131.03 30.82 136.81 42.58 135.87 54.03 C 135.32 61.68 131.90 69.09 126.42 74.47 C 113.13 87.47 99.84 100.46 86.53 113.43 C 82.71 117.20 77.35 119.36 71.97 119.16 C 64.26 119.09 56.90 114.04 54.04 106.88 C 50.92 99.67 52.64 90.73 58.20 85.18 C 63.38 79.93 68.64 74.76 73.86 69.55 C 77.59 73.34 81.47 76.97 85.11 80.84 C 79.96 86.12 74.64 91.23 69.54 96.55 C 66.90 99.10 69.66 103.86 73.05 103.52 C 74.48 102.90 75.57 101.75 76.69 100.71 C 89.64 87.97 102.68 75.31 115.64 62.58 C 121.26 56.90 121.36 46.89 115.94 41.05 C 110.16 34.33 98.63 34.11 92.54 40.51 C 77.84 54.84 63.19 69.22 48.52 83.58 C 43.02 88.81 39.89 96.39 40.02 103.98 C 40.04 113.48 45.32 122.85 53.61 127.57 C 63.96 133.72 78.24 132.38 87.08 124.12 C 94.09 117.36 100.84 110.35 107.78 103.52 C 111.62 107.19 115.31 111.03 119.10 114.77 C 112.19 121.64 105.36 128.58 98.40 135.39 C 90.57 142.92 79.91 147.47 69.03 147.65 C 57.70 147.99 46.36 143.62 38.11 135.86 C 28.75 127.36 23.48 114.61 24.07 101.98 C 24.40 90.84 29.28 80.00 37.24 72.23 C 50.17 59.48 63.20 46.83 76.16 34.12 C 79.72 30.69 83.07 26.93 87.37 24.39 Z" />
</svg>
</svg>
