<?xml version="1.0" encoding="UTF-8" ?>
<!DOCTYPE svg PUBLIC "-//W3C//DTD SVG 1.1//EN" "http://www.w3.org/Graphics/SVG/1.1/DTD/svg11.dtd">
<svg version="1.1" xmlns="http://www.w3.org/2000/svg">
<rect fill="#f86049" width="100%" height="100%"/>
<svg transform="translate(50, 50)" viewBox="0 0 160 160">
    <path fill="#ffffff" d=" M 78.11 36.24 C 83.50 35.83 89.23 35.51 94.27 37.80 C 99.82 40.22 104.37 44.57 107.48 49.72 C 113.91 49.15 120.65 50.16 126.14 53.75 C 134.29 58.81 139.84 68.24 139.03 77.97 C 139.83 92.57 126.32 105.49 111.99 105.45 C 93.00 105.46 74.01 105.46 55.02 105.45 C 40.70 105.51 27.17 92.61 27.97 78.02 C 26.99 66.78 34.52 56.04 44.68 51.74 C 49.29 49.71 54.40 49.37 59.37 49.68 C 63.44 42.94 70.19 37.47 78.11 36.24 Z M 70.41 68.39 C 66.98 60.25 73.30 50.32 81.98 49.64 C 86.93 48.92 91.59 51.54 94.79 55.12 C 87.94 60.46 83.46 68.73 83.39 77.49 C 88.04 77.53 92.69 77.52 97.34 77.50 C 97.44 70.25 103.64 63.55 111.01 63.54 C 118.80 63.01 125.91 70.29 125.42 78.03 C 125.32 85.42 118.39 91.92 111.00 91.49 C 92.67 91.48 74.34 91.48 56.01 91.49 C 50.22 91.83 44.69 87.92 42.53 82.64 C 40.55 77.88 41.62 72.00 45.37 68.41 C 47.96 65.53 51.70 64.16 55.42 63.48 C 55.64 66.70 56.23 69.88 57.01 73.01 C 61.63 71.95 65.97 70.01 70.41 68.39 Z" fill-rule="evenodd" />
    <path fill="#ffffff" d=" M 30.40 121.35 C 36.05 117.57 42.49 115.18 48.65 112.38 C 45.92 118.27 43.50 124.35 40.16 129.93 C 38.01 134.29 30.32 134.27 28.38 129.79 C 27.64 126.93 27.50 123.07 30.40 121.35 Z" />
    <path fill="#ffffff" d=" M 62.02 119.10 C 66.80 116.70 71.67 114.47 76.59 112.38 C 73.77 118.53 71.29 124.91 67.64 130.62 C 66.27 133.02 63.28 133.27 60.82 132.96 C 56.67 132.81 54.41 127.48 56.08 124.02 C 57.29 121.63 59.77 120.32 62.02 119.10 Z" />
    <path fill="#ffffff" d=" M 88.63 119.80 C 93.67 117.13 98.89 114.83 104.10 112.54 C 102.33 118.24 99.44 123.51 96.74 128.80 C 95.51 131.43 93.04 133.58 89.94 133.04 C 86.05 133.54 83.01 129.59 83.52 125.94 C 83.66 123.01 86.30 121.12 88.63 119.80 Z" />
</svg>
</svg>
