<?xml version="1.0" encoding="UTF-8" ?>
<!DOCTYPE svg PUBLIC "-//W3C//DTD SVG 1.1//EN" "http://www.w3.org/Graphics/SVG/1.1/DTD/svg11.dtd">
<svg version="1.1" xmlns="http://www.w3.org/2000/svg">
<rect fill="#9966e9" width="100%" height="100%"/>
<svg transform="translate(50, 50)" viewBox="0 0 160 160">
    <path fill="#ffffff" d=" M 95.10 28.08 C 97.09 25.76 101.02 25.49 103.15 27.77 C 105.40 29.91 105.20 33.86 102.85 35.85 C 97.23 41.57 91.46 47.16 85.83 52.87 C 98.92 53.01 112.01 52.74 125.09 52.99 C 130.27 53.03 134.43 57.91 133.82 63.03 C 133.80 83.38 133.86 103.74 133.80 124.10 C 133.99 129.25 129.16 134.07 124.01 133.79 C 94.65 133.77 65.29 133.80 35.93 133.78 C 32.43 133.90 29.49 131.21 27.66 128.49 C 26.79 126.11 27.06 123.49 26.98 121.00 C 27.03 101.66 27.00 82.32 26.99 62.98 C 27.08 60.55 26.90 57.69 28.94 55.95 C 30.93 53.68 34.01 52.90 36.93 52.91 C 42.83 52.83 48.73 52.98 54.64 52.84 C 50.92 49.06 47.03 45.44 43.44 41.55 C 41.09 38.82 42.67 34.17 46.05 33.15 C 48.44 31.96 50.92 33.71 52.55 35.38 C 58.40 41.26 64.30 47.10 70.15 52.99 C 78.44 44.65 86.77 36.37 95.10 28.08 Z M 40.43 64.58 C 42.24 64.11 44.14 64.25 45.99 64.20 C 63.33 64.30 80.67 64.14 98.01 64.28 C 100.93 64.07 102.89 67.25 102.52 69.91 C 102.50 85.63 102.55 101.36 102.49 117.08 C 102.88 120.06 99.94 122.47 97.10 122.12 C 79.04 122.12 60.97 122.15 42.91 122.11 C 40.11 122.32 37.64 119.82 37.85 117.02 C 37.77 101.34 37.84 85.65 37.82 69.97 C 37.63 67.84 38.61 65.72 40.43 64.58 Z M 114.44 64.67 C 118.13 62.85 123.13 65.81 122.60 70.05 C 122.62 74.25 117.07 76.93 113.80 74.22 C 110.48 71.93 110.99 66.58 114.44 64.67 Z M 114.46 82.61 C 117.77 81.01 122.37 83.08 122.59 86.92 C 123.44 91.40 117.50 95.00 113.94 92.13 C 110.46 89.98 110.91 84.44 114.46 82.61 Z" fill-rule="evenodd" />
</svg>
</svg>
